<svg xmlns="http://www.w3.org/2000/svg" width="32pt" height="32pt" viewBox="0 0 32 32"><rect width="32" height="32" ry="4" style="fill:#000;fill-rule:evenodd;stroke:none"/><path d="M16.372 12.908q1.932 0 3.448.744 1.516.743 2.378 2.17.892 1.427.892 3.537 0 2.289-.951 3.954-.952 1.664-2.854 2.556-1.873.892-4.667.892-1.665 0-3.151-.297-1.457-.298-2.557-.862v-3.865q1.1.565 2.646.981 1.546.387 2.913.387 1.338 0 2.23-.357.921-.357 1.397-1.1.475-.743.475-1.902 0-1.576-1.04-2.379-1.04-.832-3.21-.832-.833 0-1.725.178-.891.15-1.486.298l-1.784-.952.803-10.82h11.504v3.805h-7.58l-.387 4.162q.506-.09 1.07-.179.595-.119 1.636-.119" aria-label="5" style="fill:#fff;fill-rule:evenodd"/></svg>
